M48
;GenerationSoftware,Autodesk,EAGLE,9.3.0*%
;CreationDate,2019-03-16T23:29:13Z*%
FMAT,2
ICI,OFF
METRIC,TZ,000.000
T7C0.350
T6C0.800
T5C0.813
T4C0.900
T3C1.016
T2C1.200
%
G90
M71
T2
X7620Y8890
X11120Y8890
X93980Y90170
X90480Y90170
T3
X93980Y60960
X93980Y63500
X93980Y58420
X93980Y55880
X93980Y53340
X93980Y50800
X93980Y48260
X93980Y45720
X93980Y43180
X93980Y40640
X93980Y38100
X93980Y35560
X93980Y33020
X93980Y30480
X90170Y25400
X90170Y45720
X90170Y43180
X90170Y40640
X90170Y38100
X90170Y35560
X90170Y33020
X90170Y30480
X90170Y27940
X93980Y22860
X90170Y22860
X90170Y81280
X93980Y78740
X93980Y76200
X93980Y73660
X93980Y71120
X93980Y68580
X93980Y66040
X97790Y50800
X69850Y11430
X67310Y11430
X64770Y11430
X97790Y81280
X97790Y22860
X97790Y25400
X97790Y27940
X97790Y30480
X97790Y33020
X97790Y35560
X97790Y38100
X97790Y40640
X97790Y43180
X97790Y45720
X97790Y48260
X93980Y27940
X97790Y53340
X97790Y55880
X97790Y58420
X97790Y60960
X97790Y63500
X97790Y66040
X97790Y68580
X97790Y71120
X97790Y73660
X97790Y76200
X97790Y78740
X93980Y81280
X90170Y53340
X93980Y25400
X6350Y45720
X10160Y68580
X10160Y71120
X10160Y73660
X10160Y76200
X10160Y78740
X6350Y81280
X6350Y22860
X6350Y25400
X6350Y27940
X6350Y30480
X6350Y33020
X6350Y35560
X6350Y38100
X6350Y40640
X6350Y43180
X10160Y66040
X6350Y48260
X6350Y50800
X6350Y53340
X6350Y55880
X6350Y58420
X6350Y60960
X6350Y63500
X6350Y66040
X6350Y68580
X6350Y71120
X6350Y73660
X6350Y76200
X6350Y78740
X2540Y81280
X2540Y22860
X10160Y27940
X90170Y50800
X72390Y11430
X90170Y55880
X90170Y58420
X90170Y60960
X90170Y63500
X90170Y66040
X90170Y68580
X90170Y71120
X90170Y73660
X90170Y76200
X90170Y78740
X10160Y81280
X10160Y22860
X10160Y25400
X90170Y48260
X10160Y30480
X10160Y33020
X10160Y35560
X10160Y38100
X10160Y40640
X10160Y43180
X10160Y45720
X10160Y48260
X10160Y50800
X10160Y53340
X10160Y55880
X10160Y58420
X10160Y60960
X10160Y63500
X55880Y93980
X35560Y90170
X33020Y90170
X30480Y90170
X27940Y90170
X25400Y90170
X22860Y90170
X20320Y90170
X17780Y90170
X38100Y90170
X53340Y93980
X50800Y93980
X48260Y93980
X45720Y93980
X43180Y93980
X40640Y93980
X38100Y93980
X35560Y93980
X40640Y90170
X43180Y90170
X45720Y90170
X48260Y90170
X50800Y90170
X53340Y90170
X55880Y90170
X21590Y16510
X21590Y19050
X21590Y21590
X21590Y24130
X21590Y26670
X21590Y29210
X21590Y31750
X21590Y34290
X27940Y5080
X20320Y8890
X22860Y8890
X25400Y8890
X27940Y8890
X30480Y8890
X33020Y8890
X35560Y8890
X38100Y8890
X40640Y8890
X43180Y8890
X45720Y8890
X48260Y8890
X20320Y5080
X22860Y5080
X25400Y5080
X21590Y36830
X30480Y5080
X33020Y5080
X35560Y5080
X38100Y5080
X40640Y5080
X43180Y5080
X45720Y5080
X48260Y5080
X17780Y93980
X20320Y93980
X22860Y93980
X25400Y93980
X27940Y93980
X30480Y93980
X33020Y93980
X50800Y44450
X54610Y44450
X54610Y46990
X54610Y49530
X54610Y52070
X50800Y16510
X50800Y19050
X50800Y21590
X50800Y24130
X50800Y26670
X50800Y29210
X50800Y31750
X50800Y34290
X50800Y36830
X50800Y39370
X50800Y41910
X54610Y41910
X50800Y46990
X50800Y49530
X50800Y52070
X82550Y86360
X80010Y86360
X77470Y86360
X74930Y86360
X72390Y86360
X69850Y86360
X67310Y86360
X64770Y86360
X82550Y11430
X80010Y11430
X77470Y11430
X74930Y11430
X25400Y39370
X21590Y39370
X21590Y41910
X21590Y44450
X21590Y46990
X21590Y49530
X21590Y52070
X25400Y16510
X25400Y19050
X25400Y21590
X25400Y24130
X25400Y26670
X25400Y29210
X25400Y31750
X25400Y34290
X25400Y36830
X2540Y30480
X25400Y41910
X25400Y44450
X25400Y46990
X25400Y49530
X25400Y52070
X54610Y16510
X54610Y19050
X54610Y21590
X54610Y24130
X54610Y26670
X54610Y29210
X54610Y31750
X54610Y34290
X54610Y36830
X54610Y39370
X66040Y30480
X83820Y59690
X83820Y62230
X66040Y41910
X66040Y44450
X66040Y46990
X74930Y41910
X74930Y44450
X74930Y46990
X83820Y41910
X83820Y44450
X83820Y46990
X66040Y25400
X66040Y27940
X83820Y57150
X74930Y25400
X74930Y27940
X74930Y30480
X83820Y25400
X83820Y27940
X83820Y30480
X90170Y5080
X92710Y5080
X95250Y5080
X90170Y11430
X92710Y11430
X95250Y11430
X64770Y3810
X16510Y60960
X90170Y17780
X92710Y17780
X95250Y17780
X66040Y74930
X66040Y77470
X66040Y80010
X74930Y74930
X74930Y77470
X74930Y80010
X83820Y74930
X83820Y77470
X83820Y80010
X16510Y58420
X2540Y27940
X16510Y63500
X30480Y58420
X30480Y60960
X30480Y63500
X41910Y58420
X41910Y60960
X41910Y63500
X66040Y57150
X66040Y59690
X66040Y62230
X74930Y57150
X74930Y59690
X74930Y62230
X82550Y7620
X74930Y90170
X72390Y90170
X69850Y90170
X67310Y90170
X64770Y90170
X82550Y93980
X80010Y93980
X77470Y93980
X74930Y93980
X72390Y93980
X69850Y93980
X67310Y93980
X64770Y93980
X77470Y90170
X80010Y7620
X77470Y7620
X74930Y7620
X72390Y7620
X69850Y7620
X67310Y7620
X64770Y7620
X82550Y3810
X80010Y3810
X77470Y3810
X74930Y3810
X72390Y3810
X2540Y63500
X2540Y25400
X2540Y33020
X2540Y35560
X2540Y38100
X2540Y40640
X2540Y43180
X2540Y45720
X2540Y48260
X2540Y50800
X2540Y53340
X2540Y55880
X2540Y58420
X2540Y60960
X69850Y3810
X2540Y66040
X2540Y68580
X2540Y71120
X2540Y73660
X2540Y76200
X2540Y78740
X8890Y92710
X6350Y92710
X10160Y16510
X7620Y16510
X82550Y90170
X80010Y90170
X67310Y3810
T4
X71120Y25400
X60960Y54610
X71120Y33020
X80010Y25400
X80010Y33020
X71120Y72390
X71120Y80010
X80010Y72390
X80010Y80010
X22860Y55880
X22860Y63500
X35560Y55880
X35560Y63500
X48260Y55880
X48260Y63500
X60960Y62230
X25400Y73660
X33020Y73660
X60960Y25400
X39370Y73660
X46990Y73660
X86360Y12700
X86360Y20320
X60960Y72390
X60960Y80010
X71120Y54610
X71120Y62230
X80010Y62230
X60960Y33020
X80010Y46990
X80010Y39370
X71120Y46990
X71120Y39370
X80010Y54610
X60960Y39370
X60960Y46990
T5
X50800Y86360
X53340Y78740
X50800Y78740
X48260Y78740
X45720Y78740
X43180Y78740
X40640Y78740
X38100Y78740
X35560Y78740
X33020Y78740
X30480Y78740
X27940Y78740
X25400Y78740
X22860Y78740
X20320Y78740
X20320Y86360
X22860Y86360
X25400Y86360
X27940Y86360
X30480Y86360
X33020Y86360
X43180Y86360
X40640Y86360
X45720Y86360
X48260Y86360
X35560Y86360
X38100Y86360
X53340Y86360
T6
X30480Y26670
X30480Y46990
X45720Y26670
X45720Y29210
X45720Y31750
X45720Y46990
X45720Y49530
X45720Y52070
X30480Y52070
X30480Y49530
X35560Y53340
X30480Y44450
X30480Y41910
X30480Y39370
X30480Y36830
X30480Y34290
X30480Y31750
X30480Y29210
X30480Y24130
X45720Y16510
X45720Y24130
X38100Y53340
X40640Y53340
X45720Y41910
X45720Y39370
X45720Y36830
X45720Y34290
X35560Y50800
X40640Y50800
X45720Y44450
X45720Y21590
X45720Y19050
X30480Y21590
X30480Y19050
X30480Y16510
X38100Y50800
T7
X43000Y62000
X27357Y65000
X27357Y62000
X87000Y75000
X87000Y82000
X38750Y67250
X40500Y65500
X86250Y65000
X38250Y68500
X85000Y9250
X32250Y24750
X39946Y61946
X77250Y65750
X29000Y66750
X50500Y81500
X48500Y81500
X43500Y72000
X67000Y54000
X61000Y87000
X36000Y65000
X30000Y72000
X39000Y65000
X82750Y66750
X19000Y15250
X26750Y53000
X79000Y50000
X58500Y89750
X40500Y69750
X81750Y66750
X59250Y92750
X58750Y67500
X41250Y69000
X42000Y70500
X71500Y17000
X60000Y85250
X57250Y58500
X48750Y84250
X45250Y57000
X30000Y83250
X55250Y81500
X78000Y79500
X60000Y89250
X58750Y29750
M30