G04 EAGLE Gerber RS-274X export*
G75*
%MOMM*%
%FSLAX34Y34*%
%LPD*%
%INSoldermask Top*%
%IPPOS*%
%AMOC8*
5,1,8,0,0,1.08239X$1,22.5*%
G01*
%ADD10C,2.082800*%
%ADD11C,1.511200*%
%ADD12C,1.511200*%
%ADD13C,1.524000*%
%ADD14R,2.235200X2.235200*%
%ADD15C,2.235200*%
%ADD16C,0.959600*%


D10*
X393700Y736600D03*
X469900Y736600D03*
X863600Y127000D03*
X863600Y203200D03*
X609600Y723900D03*
X609600Y800100D03*
X711200Y546100D03*
X711200Y622300D03*
X800100Y546100D03*
X800100Y622300D03*
X609600Y393700D03*
X609600Y469900D03*
X711200Y393700D03*
X711200Y469900D03*
X800100Y393700D03*
X800100Y469900D03*
X609600Y254000D03*
X609600Y330200D03*
X711200Y254000D03*
X711200Y330200D03*
X800100Y254000D03*
X800100Y330200D03*
X711200Y723900D03*
X711200Y800100D03*
X800100Y723900D03*
X800100Y800100D03*
X228600Y558800D03*
X228600Y635000D03*
X355600Y558800D03*
X355600Y635000D03*
X482600Y558800D03*
X482600Y635000D03*
X609600Y546100D03*
X609600Y622300D03*
X254000Y736600D03*
X330200Y736600D03*
X901700Y177800D03*
X927100Y177800D03*
X952500Y177800D03*
X660400Y749300D03*
X660400Y774700D03*
X660400Y800100D03*
X749300Y749300D03*
X749300Y774700D03*
X749300Y800100D03*
X838200Y749300D03*
X838200Y774700D03*
X838200Y800100D03*
X165100Y584200D03*
X165100Y609600D03*
X165100Y635000D03*
X304800Y584200D03*
X304800Y609600D03*
X304800Y635000D03*
X419100Y584200D03*
X419100Y609600D03*
X419100Y635000D03*
X660400Y571500D03*
X660400Y596900D03*
X660400Y622300D03*
X749300Y571500D03*
X749300Y596900D03*
X749300Y622300D03*
X838200Y571500D03*
X838200Y596900D03*
X838200Y622300D03*
X660400Y419100D03*
X660400Y444500D03*
X660400Y469900D03*
X749300Y419100D03*
X749300Y444500D03*
X749300Y469900D03*
X838200Y419100D03*
X838200Y444500D03*
X838200Y469900D03*
X660400Y254000D03*
X660400Y279400D03*
X660400Y304800D03*
X749300Y254000D03*
X749300Y279400D03*
X749300Y304800D03*
X838200Y254000D03*
X838200Y279400D03*
X838200Y304800D03*
X901700Y50800D03*
X927100Y50800D03*
X952500Y50800D03*
X901700Y114300D03*
X927100Y114300D03*
X952500Y114300D03*
D11*
X311340Y520700D02*
X298260Y520700D01*
X298260Y495300D02*
X311340Y495300D01*
X311340Y469900D02*
X298260Y469900D01*
X298260Y444500D02*
X311340Y444500D01*
X311340Y419100D02*
X298260Y419100D01*
X298260Y393700D02*
X311340Y393700D01*
X311340Y368300D02*
X298260Y368300D01*
X298260Y342900D02*
X311340Y342900D01*
X311340Y317500D02*
X298260Y317500D01*
X298260Y292100D02*
X311340Y292100D01*
X311340Y266700D02*
X298260Y266700D01*
X298260Y241300D02*
X311340Y241300D01*
X450660Y520700D02*
X463740Y520700D01*
X463740Y495300D02*
X450660Y495300D01*
X450660Y469900D02*
X463740Y469900D01*
X463740Y317500D02*
X450660Y317500D01*
X450660Y292100D02*
X463740Y292100D01*
X463740Y266700D02*
X450660Y266700D01*
X450660Y241300D02*
X463740Y241300D01*
X463740Y165100D02*
X450660Y165100D01*
X311340Y165100D02*
X298260Y165100D01*
X298260Y190500D02*
X311340Y190500D01*
X311340Y215900D02*
X298260Y215900D01*
X450660Y190500D02*
X463740Y190500D01*
X463740Y215900D02*
X450660Y215900D01*
X450660Y444500D02*
X463740Y444500D01*
D12*
X406400Y508000D03*
X381000Y508000D03*
X355600Y508000D03*
D11*
X450660Y342900D02*
X463740Y342900D01*
X463740Y368300D02*
X450660Y368300D01*
X450660Y393700D02*
X463740Y393700D01*
X463740Y419100D02*
X450660Y419100D01*
D12*
X406400Y533400D03*
X381000Y533400D03*
X355600Y533400D03*
D13*
X533400Y856996D02*
X533400Y870204D01*
X508000Y870204D02*
X508000Y856996D01*
X381000Y856996D02*
X381000Y870204D01*
X355600Y870204D02*
X355600Y856996D01*
X482600Y856996D02*
X482600Y870204D01*
X457200Y870204D02*
X457200Y856996D01*
X406400Y856996D02*
X406400Y870204D01*
X431800Y870204D02*
X431800Y856996D01*
X330200Y856996D02*
X330200Y870204D01*
X304800Y870204D02*
X304800Y856996D01*
X279400Y856996D02*
X279400Y870204D01*
X254000Y870204D02*
X254000Y856996D01*
X228600Y856996D02*
X228600Y870204D01*
X203200Y870204D02*
X203200Y856996D01*
X203200Y794004D02*
X203200Y780796D01*
X228600Y780796D02*
X228600Y794004D01*
X254000Y794004D02*
X254000Y780796D01*
X279400Y780796D02*
X279400Y794004D01*
X304800Y794004D02*
X304800Y780796D01*
X330200Y780796D02*
X330200Y794004D01*
X355600Y794004D02*
X355600Y780796D01*
X381000Y780796D02*
X381000Y794004D01*
X406400Y794004D02*
X406400Y780796D01*
X431800Y780796D02*
X431800Y794004D01*
X457200Y794004D02*
X457200Y780796D01*
X482600Y780796D02*
X482600Y794004D01*
X508000Y794004D02*
X508000Y780796D01*
X533400Y780796D02*
X533400Y794004D01*
D10*
X647700Y38100D03*
X673100Y38100D03*
X698500Y38100D03*
X723900Y38100D03*
X749300Y38100D03*
X774700Y38100D03*
X800100Y38100D03*
X825500Y38100D03*
X647700Y76200D03*
X673100Y76200D03*
X698500Y76200D03*
X723900Y76200D03*
X749300Y76200D03*
X774700Y76200D03*
X800100Y76200D03*
X825500Y76200D03*
X647700Y939800D03*
X673100Y939800D03*
X698500Y939800D03*
X723900Y939800D03*
X749300Y939800D03*
X774700Y939800D03*
X800100Y939800D03*
X825500Y939800D03*
X647700Y901700D03*
X673100Y901700D03*
X698500Y901700D03*
X723900Y901700D03*
X749300Y901700D03*
X774700Y901700D03*
X800100Y901700D03*
X825500Y901700D03*
D14*
X76200Y88900D03*
D15*
X111200Y88900D03*
D14*
X939800Y901700D03*
D15*
X904800Y901700D03*
D10*
X76200Y165100D03*
X101600Y165100D03*
X63500Y927100D03*
X88900Y927100D03*
X25400Y787400D03*
X25400Y762000D03*
X25400Y736600D03*
X25400Y711200D03*
X25400Y685800D03*
X25400Y660400D03*
X25400Y635000D03*
X25400Y609600D03*
X25400Y584200D03*
X25400Y558800D03*
X25400Y533400D03*
X25400Y508000D03*
X25400Y482600D03*
X25400Y457200D03*
X25400Y431800D03*
X25400Y406400D03*
X25400Y381000D03*
X25400Y355600D03*
X25400Y330200D03*
X25400Y304800D03*
X25400Y279400D03*
X25400Y254000D03*
X25400Y228600D03*
X25400Y812800D03*
X63500Y787400D03*
X63500Y762000D03*
X63500Y736600D03*
X63500Y711200D03*
X63500Y685800D03*
X63500Y660400D03*
X63500Y635000D03*
X63500Y609600D03*
X63500Y584200D03*
X63500Y558800D03*
X63500Y533400D03*
X63500Y508000D03*
X63500Y482600D03*
X63500Y457200D03*
X63500Y431800D03*
X63500Y406400D03*
X63500Y381000D03*
X63500Y355600D03*
X63500Y330200D03*
X63500Y304800D03*
X63500Y279400D03*
X63500Y254000D03*
X63500Y228600D03*
X63500Y812800D03*
X101600Y787400D03*
X101600Y762000D03*
X101600Y736600D03*
X101600Y711200D03*
X101600Y685800D03*
X101600Y660400D03*
X101600Y635000D03*
X101600Y609600D03*
X101600Y584200D03*
X101600Y558800D03*
X101600Y533400D03*
X101600Y508000D03*
X101600Y482600D03*
X101600Y457200D03*
X101600Y431800D03*
X101600Y406400D03*
X101600Y381000D03*
X101600Y355600D03*
X101600Y330200D03*
X101600Y304800D03*
X101600Y279400D03*
X101600Y254000D03*
X101600Y228600D03*
X101600Y812800D03*
X901700Y787400D03*
X901700Y762000D03*
X901700Y736600D03*
X901700Y711200D03*
X901700Y685800D03*
X901700Y660400D03*
X901700Y635000D03*
X901700Y609600D03*
X901700Y584200D03*
X901700Y558800D03*
X901700Y533400D03*
X901700Y508000D03*
X901700Y482600D03*
X901700Y457200D03*
X901700Y431800D03*
X901700Y406400D03*
X901700Y381000D03*
X901700Y355600D03*
X901700Y330200D03*
X901700Y304800D03*
X901700Y279400D03*
X901700Y254000D03*
X901700Y228600D03*
X901700Y812800D03*
X939800Y787400D03*
X939800Y762000D03*
X939800Y736600D03*
X939800Y711200D03*
X939800Y685800D03*
X939800Y660400D03*
X939800Y635000D03*
X939800Y609600D03*
X939800Y584200D03*
X939800Y558800D03*
X939800Y533400D03*
X939800Y508000D03*
X939800Y482600D03*
X939800Y457200D03*
X939800Y431800D03*
X939800Y406400D03*
X939800Y381000D03*
X939800Y355600D03*
X939800Y330200D03*
X939800Y304800D03*
X939800Y279400D03*
X939800Y254000D03*
X939800Y228600D03*
X939800Y812800D03*
X977900Y787400D03*
X977900Y762000D03*
X977900Y736600D03*
X977900Y711200D03*
X977900Y685800D03*
X977900Y660400D03*
X977900Y635000D03*
X977900Y609600D03*
X977900Y584200D03*
X977900Y558800D03*
X977900Y533400D03*
X977900Y508000D03*
X977900Y482600D03*
X977900Y457200D03*
X977900Y431800D03*
X977900Y406400D03*
X977900Y381000D03*
X977900Y355600D03*
X977900Y330200D03*
X977900Y304800D03*
X977900Y279400D03*
X977900Y254000D03*
X977900Y228600D03*
X977900Y812800D03*
X647700Y114300D03*
X673100Y114300D03*
X698500Y114300D03*
X723900Y114300D03*
X749300Y114300D03*
X774700Y114300D03*
X800100Y114300D03*
X825500Y114300D03*
X647700Y863600D03*
X673100Y863600D03*
X698500Y863600D03*
X723900Y863600D03*
X749300Y863600D03*
X774700Y863600D03*
X800100Y863600D03*
X825500Y863600D03*
X508000Y520700D03*
X508000Y495300D03*
X508000Y469900D03*
X508000Y444500D03*
X508000Y419100D03*
X508000Y393700D03*
X508000Y368300D03*
X508000Y342900D03*
X508000Y317500D03*
X508000Y292100D03*
X508000Y266700D03*
X508000Y241300D03*
X508000Y215900D03*
X508000Y190500D03*
X508000Y165100D03*
X546100Y520700D03*
X546100Y495300D03*
X546100Y469900D03*
X546100Y444500D03*
X546100Y419100D03*
X546100Y393700D03*
X546100Y368300D03*
X546100Y342900D03*
X546100Y317500D03*
X546100Y292100D03*
X546100Y266700D03*
X546100Y241300D03*
X546100Y215900D03*
X546100Y190500D03*
X546100Y165100D03*
X254000Y520700D03*
X254000Y495300D03*
X254000Y469900D03*
X254000Y444500D03*
X254000Y419100D03*
X254000Y393700D03*
X254000Y368300D03*
X254000Y342900D03*
X254000Y317500D03*
X254000Y292100D03*
X254000Y266700D03*
X254000Y241300D03*
X254000Y215900D03*
X254000Y190500D03*
X254000Y165100D03*
X215900Y520700D03*
X215900Y495300D03*
X215900Y469900D03*
X215900Y444500D03*
X215900Y419100D03*
X215900Y393700D03*
X215900Y368300D03*
X215900Y342900D03*
X215900Y317500D03*
X215900Y292100D03*
X215900Y266700D03*
X215900Y241300D03*
X215900Y215900D03*
X215900Y190500D03*
X215900Y165100D03*
X558800Y901700D03*
X533400Y901700D03*
X508000Y901700D03*
X482600Y901700D03*
X457200Y901700D03*
X431800Y901700D03*
X406400Y901700D03*
X381000Y901700D03*
X355600Y901700D03*
X330200Y901700D03*
X304800Y901700D03*
X279400Y901700D03*
X254000Y901700D03*
X228600Y901700D03*
X203200Y901700D03*
X177800Y901700D03*
X558800Y939800D03*
X533400Y939800D03*
X508000Y939800D03*
X482600Y939800D03*
X457200Y939800D03*
X431800Y939800D03*
X406400Y939800D03*
X381000Y939800D03*
X355600Y939800D03*
X330200Y939800D03*
X304800Y939800D03*
X279400Y939800D03*
X254000Y939800D03*
X228600Y939800D03*
X203200Y939800D03*
X177800Y939800D03*
X482600Y50800D03*
X457200Y50800D03*
X431800Y50800D03*
X406400Y50800D03*
X381000Y50800D03*
X355600Y50800D03*
X330200Y50800D03*
X304800Y50800D03*
X279400Y50800D03*
X254000Y50800D03*
X228600Y50800D03*
X203200Y50800D03*
X482600Y88900D03*
X457200Y88900D03*
X431800Y88900D03*
X406400Y88900D03*
X381000Y88900D03*
X355600Y88900D03*
X330200Y88900D03*
X304800Y88900D03*
X279400Y88900D03*
X254000Y88900D03*
X228600Y88900D03*
X203200Y88900D03*
D16*
X300000Y720000D03*
X390000Y650000D03*
X360000Y650000D03*
X610000Y870000D03*
X670000Y540000D03*
X435000Y720000D03*
X485000Y815000D03*
X505000Y815000D03*
X290000Y667500D03*
X772500Y657500D03*
X399459Y619459D03*
X430000Y620000D03*
X273568Y650000D03*
X273568Y620000D03*
X870000Y750000D03*
X870000Y820000D03*
X387500Y672500D03*
X405000Y655000D03*
X862500Y650000D03*
X382500Y685000D03*
X850000Y92500D03*
X322500Y247500D03*
X715000Y170000D03*
X587500Y297500D03*
X600000Y892500D03*
X780000Y795000D03*
X552500Y815000D03*
X300000Y832500D03*
X452500Y570000D03*
X487500Y842500D03*
X572500Y585000D03*
X600000Y852500D03*
X827500Y667500D03*
X420000Y705000D03*
X412500Y690000D03*
X587500Y675000D03*
X592500Y927500D03*
X817500Y667500D03*
X405000Y697500D03*
X585000Y897500D03*
X790000Y500000D03*
X267500Y530000D03*
X190000Y152500D03*
M02*
